<?xml version="1.0" encoding="UTF-8"?>
<svg width="700pt" height="700pt" version="1.1" viewBox="0 0 700 700" xmlns="http://www.w3.org/2000/svg">
 <g>
  <path d="m235.39 308.73 203.72-203.73 85.891 85.891-203.73 203.72-96.602 10.727z"/>
  <path d="m465.13 78.961 35.121-35.105c5.707-5.6719 13.43-8.8516 21.473-8.8516 8.0469 0 15.766 3.1797 21.473 8.8516l42.93 42.945c5.6836 5.6992 8.8711 13.422 8.8711 21.473 0 8.0508-3.1875 15.77-8.8711 21.473l-35.105 35.105z"/>
  <path d="m560 297.5c-4.6406 0-9.0938 1.8438-12.375 5.125s-5.125 7.7344-5.125 12.375v157.5c0 4.6406-1.8438 9.0938-5.125 12.375s-7.7344 5.125-12.375 5.125h-367.5c-4.6406 0-9.0938-1.8438-12.375-5.125s-5.125-7.7344-5.125-12.375v-367.5c0-4.6406 1.8438-9.0938 5.125-12.375s7.7344-5.125 12.375-5.125h157.5c6.2539 0 12.031-3.3359 15.156-8.75s3.125-12.086 0-17.5-8.9023-8.75-15.156-8.75h-157.5c-13.926 0-27.277 5.5312-37.125 15.375-9.8438 9.8477-15.375 23.199-15.375 37.125v367.5c0 13.926 5.5312 27.277 15.375 37.125 9.8477 9.8438 23.199 15.375 37.125 15.375h367.5c13.926 0 27.277-5.5312 37.125-15.375 9.8438-9.8477 15.375-23.199 15.375-37.125v-157.5c0-4.6406-1.8438-9.0938-5.125-12.375s-7.7344-5.125-12.375-5.125z"/>
 </g>
</svg>
